HIERARCHY
ROOT Hips
{
	OFFSET	0.00	0.00	0.00
	CHANNELS 6 Xposition Yposition Zposition Zrotation Xrotation Yrotation
	JOINT LeftUpLeg
	{
		OFFSET	 0.126116	-0.014019	-0.065224
		CHANNELS 3 Zrotation Xrotation Yrotation
		JOINT LeftLeg
		{
			OFFSET	 0.000000	 0.000000	 0.569914
			CHANNELS 3 Zrotation Xrotation Yrotation
			JOINT LeftFoot
			{
				OFFSET	 0.000000	 0.000000	 0.544423
				CHANNELS 3 Zrotation Xrotation Yrotation
				JOINT LeftToeBase
				{
					OFFSET	 0.000000	 0.000000	 0.207117
					CHANNELS 3 Zrotation Xrotation Yrotation
					End Site
					{
						OFFSET	 0.000000	 0.000000	 0.207117
					}
				}
			}
		}
	}
	JOINT RightUpLeg
	{
		OFFSET	-0.124023	-0.008373	-0.065224
		CHANNELS 3 Zrotation Xrotation Yrotation
		JOINT RightLeg
		{
			OFFSET	 0.000000	 0.000000	 0.570047
			CHANNELS 3 Zrotation Xrotation Yrotation
			JOINT RightFoot
			{
				OFFSET	 0.000000	 0.000000	 0.544354
				CHANNELS 3 Zrotation Xrotation Yrotation
				JOINT RightToeBase
				{
					OFFSET	 0.000000	 0.000000	 0.207540
					CHANNELS 3 Zrotation Xrotation Yrotation
					End Site
					{
						OFFSET	 0.000000	 0.000000	 0.207540
					}
				}
			}
		}
	}
	JOINT Spine
	{
		OFFSET	 0.000184	-0.007763	 0.117403
		CHANNELS 3 Zrotation Xrotation Yrotation
		JOINT Spine1
		{
			OFFSET	 0.000000	 0.000000	 0.137269
			CHANNELS 3 Zrotation Xrotation Yrotation
			JOINT Spine2
			{
				OFFSET	 0.000000	 0.000000	 0.156879
				CHANNELS 3 Zrotation Xrotation Yrotation
				JOINT LeftShoulder
				{
					OFFSET	 0.080501	-0.002496	 0.160144
					CHANNELS 3 Zrotation Xrotation Yrotation
					JOINT LeftArm
					{
						OFFSET	 0.000000	 0.000000	 0.164363
						CHANNELS 3 Zrotation Xrotation Yrotation
						JOINT LeftForeArm
						{
							OFFSET	 0.000000	 0.000000	 0.364576
							CHANNELS 3 Zrotation Xrotation Yrotation
							JOINT LeftHand
							{
								OFFSET	 0.000000	 0.000000	 0.360812
								CHANNELS 3 Zrotation Xrotation Yrotation
								JOINT LeftHandIndex1
								{
									OFFSET	 0.000000	 0.000000	 0.086006
									CHANNELS 3 Zrotation Xrotation Yrotation
									JOINT LeftHandIndex2
									{
										OFFSET	 0.000000	 0.000000	 0.047236
										CHANNELS 3 Zrotation Xrotation Yrotation
										JOINT LeftHandIndex3
										{
											OFFSET	-0.004284	-0.000551	 0.038166
											CHANNELS 3 Zrotation Xrotation Yrotation
											End Site
											{
												OFFSET	-0.004284	-0.000551	 0.038166
											}
										}
									}
								}
							}
						}
					}
				}
				JOINT Neck
				{
					OFFSET	 0.000000	 0.000000	 0.176489
					CHANNELS 3 Zrotation Xrotation Yrotation
					JOINT Head
					{
						OFFSET	 0.000000	-0.001747	 0.077940
						CHANNELS 3 Zrotation Xrotation Yrotation
						End Site
						{
							OFFSET	 0.000000	-0.001747	 0.077940
						}
					}
				}
				JOINT RightShoulder
				{
					OFFSET	-0.080363	 0.000306	 0.159706
					CHANNELS 3 Zrotation Xrotation Yrotation
					JOINT RightArm
					{
						OFFSET	 0.000000	 0.000000	 0.164196
						CHANNELS 3 Zrotation Xrotation Yrotation
						JOINT RightForeArm
						{
							OFFSET	 0.000000	 0.000000	 0.365611
							CHANNELS 3 Zrotation Xrotation Yrotation
							JOINT RightHand
							{
								OFFSET	 0.000000	 0.000000	 0.360648
								CHANNELS 3 Zrotation Xrotation Yrotation
								JOINT RightHandIndex1
								{
									OFFSET	 0.000000	 0.000000	 0.069977
									CHANNELS 3 Zrotation Xrotation Yrotation
									JOINT RightHandIndex2
									{
										OFFSET	 0.000000	 0.000000	 0.052305
										CHANNELS 3 Zrotation Xrotation Yrotation
										JOINT RightHandIndex3
										{
											OFFSET	 0.009002	-0.000782	 0.042196
											CHANNELS 3 Zrotation Xrotation Yrotation
											End Site
											{
												OFFSET	 0.009002	-0.000782	 0.042196
											}
										}
									}
								}
							}
						}
					}
				}
			}
		}
	}
}
MOTION
Frames:    4
Frame Time: 0.03333334
-0.000646	 0.019784	 1.270403	 0.002616	-0.001240	-0.188999	-4.227171	-1.696039	 178.644700	 1.471412	-12.105210	-0.706962	-6.393610	 71.379460	 0.224749	-2.385833	 28.452760	 0.000004	 4.152224	-2.454445	-178.307800	-1.443297	-13.239800	 0.761283	 6.413503	 71.797440	-0.371779	 2.384658	 28.388730	 0.000004	 4.271601	 2.778843	-0.110758	 2.180872	 3.556854	 0.864694	-6.565123	-4.338481	-1.419408	-91.776180	 78.527450	 180.000000	 70.666470	 44.825580	-58.484600	-8.112191	 1.608671	-4.017906	-29.125380	 3.264547	-4.356831	-2.635965	 4.993658	 6.788941	-5.165319	 0.784187	 3.516649	-5.225038	 0.466231	 0.424329	-0.000002	-3.783157	-0.089647	-6.388126	 4.687367	 0.261708	 89.782200	 78.203900	 179.999900	-63.228200	 41.514270	 53.176400	 7.522174	 5.798777	 13.272390	 28.320010	 2.425045	 8.944340	 6.112037	 4.509576	-0.364401	 4.968462	 1.518543	-9.347576	 5.168945	 0.703820	 2.021906
-0.000636	 0.020213	 1.263929	 0.003062	-0.002075	-0.181933	-4.538103	-4.231348	 178.855600	 1.389562	-17.332730	-1.028750	-8.000437	 74.026580	 1.908575	-2.385833	 28.452760	 0.000004	 4.471834	-4.822966	-178.513500	-1.362702	-18.124930	 1.059156	 7.939564	 74.270750	-1.968648	 2.384658	 28.388730	 0.000004	 4.238386	 2.898186	-0.127853	 2.155848	 3.140703	 0.880144	-6.495707	-3.809129	-1.367156	-91.776210	 78.527490	-180.000000	 70.358260	 44.754140	-58.219100	-8.089044	 1.761578	-4.400749	-29.125400	 3.264533	-4.356856	-2.635965	 4.993658	 6.788941	-5.165319	 0.784187	 3.516649	-5.225038	 0.466231	 0.424329	-0.000002	-3.783157	-0.089647	-6.344797	 4.945374	 0.274254	 89.782120	 78.203900	 180.000000	-62.909740	 41.060500	 53.577380	 6.782906	 5.655400	 13.411990	 28.210870	 2.016839	 8.687525	 6.112037	 4.509576	-0.364401	 4.968462	 1.518543	-9.347576	 5.168945	 0.703820	 2.021906
-0.000627	 0.020583	 1.258399	 0.003566	-0.002075	-0.172962	-4.790185	-5.914817	 178.991400	 1.316351	-20.808350	-1.252732	-9.415372	 75.780080	 3.375489	-2.385833	 28.452760	 0.000004	 4.729618	-6.436588	-178.657200	-1.290704	-21.455620	 1.271722	 9.303417	 75.950760	-3.381566	 2.384658	 28.388730	 0.000004	 4.156859	 2.998672	-0.139984	 2.108963	 2.786935	 0.882423	-6.358388	-3.364487	-1.307667	-91.776170	 78.527470	 180.000000	 70.063360	 44.709630	-57.957180	-8.061368	 1.887949	-4.717386	-29.125360	 3.264513	-4.356851	-2.635965	 4.993658	 6.788941	-5.165319	 0.784187	 3.516649	-5.225038	 0.466231	 0.424329	-0.000002	-3.783157	-0.089647	-6.230008	 5.173917	 0.281744	 89.782090	 78.203890	 180.000000	-62.713120	 40.290290	 54.595600	 5.844045	 5.225848	 13.009870	 28.441940	 1.334237	 8.284430	 6.112037	 4.509576	-0.364401	 4.968462	 1.518543	-9.347576	 5.168945	 0.703820	 2.021906
-0.000616	 0.021040	 1.251703	 0.004439	-0.000661	-0.158308	-5.104932	-7.650388	 179.126900	 1.223195	-24.394870	-1.495004	-11.340770	 77.579110	 5.340270	-2.385833	 28.452760	 0.000004	 5.017439	-8.119576	-178.810500	-1.199189	-24.928170	 1.503996	 11.108410	 77.694000	-5.252994	 2.384658	 28.388730	 0.000004	 3.990618	 3.116802	-0.150917	 2.019992	 2.364850	 0.870200	-6.093872	-2.840391	-1.218833	-91.776120	 78.527420	 179.999900	 69.662510	 44.668990	-57.593970	-8.019938	 2.025200	-5.061479	-29.125410	 3.264544	-4.356836	-2.635965	 4.993658	 6.788941	-5.165319	 0.784187	 3.516649	-5.225038	 0.466231	 0.424329	-0.000002	-3.783157	-0.089647	-5.992160	 5.457766	 0.285855	 89.782030	 78.203870	-180.000000	-62.042510	 39.040790	 56.433650	 4.200081	 4.466880	 12.160810	 28.501600	 0.342100	 7.591988	 6.112037	 4.509576	-0.364401	 4.968462	 1.518543	-9.347576	 5.168945	 0.703820	 2.021906
